<svg width="39" height="33" viewBox="0 0 39 33" fill="none" xmlns="http://www.w3.org/2000/svg">
<path d="M33.1039 10.4183V6.4541H29.1396" stroke="#ABABAB" stroke-width="1.5" stroke-miterlimit="10" stroke-linecap="round" stroke-linejoin="round"/>
<path d="M29.1396 26.4466H33.1039V22.4824" stroke="#ABABAB" stroke-width="1.5" stroke-miterlimit="10" stroke-linecap="round" stroke-linejoin="round"/>
<path d="M6.08105 22.4824V26.4466H10.0453" stroke="#ABABAB" stroke-width="1.5" stroke-miterlimit="10" stroke-linecap="round" stroke-linejoin="round"/>
<path d="M10.0453 6.4541H6.08105V10.4183" stroke="#ABABAB" stroke-width="1.5" stroke-miterlimit="10" stroke-linecap="round" stroke-linejoin="round"/>
<path d="M37.6231 1.2998H1.55957V31.5144H37.6231V1.2998Z" stroke="#ABABAB" stroke-width="1.5" stroke-miterlimit="10" stroke-linecap="round" stroke-linejoin="round"/>
<path opacity="0.8" d="M13.866 14.0943H13.818L10.922 17.9823H13.866V14.0943ZM13.866 19.8543H9.13002V17.7743L13.994 11.2463H16.026V17.9823H17.514V19.8543H16.026V22.4463H13.866V19.8543ZM18.8686 11.0223H21.3806V15.7583L25.8446 11.0223H28.9806L24.5166 15.5343L29.4126 22.4463H26.2606L22.8206 17.3103L21.3806 18.7663V22.4463H18.8686V11.0223Z" fill="#ABABAB"/>
</svg>
