<svg width="38" height="35" viewBox="0 0 38 35" fill="none" xmlns="http://www.w3.org/2000/svg">
<path d="M5.8271 33.925H32.2554C34.7434 33.925 36.7603 31.9082 36.7603 29.4202C36.7603 28.619 36.5512 27.8667 36.1845 27.2149L22.9703 3.18912C22.1983 1.81673 20.7281 0.889633 19.0413 0.889633C17.3545 0.889633 15.8842 1.81673 15.1122 3.18912L1.89806 27.2149C1.53144 27.8667 1.32227 28.619 1.32227 29.4202C1.32227 31.9082 3.33915 33.925 5.8271 33.925Z" stroke="#ABABAB" stroke-width="1.5" stroke-miterlimit="10" stroke-linecap="round" stroke-linejoin="round"/>
<path d="M19.0391 11.4007V20.4104" stroke="#ABABAB" stroke-width="1.5" stroke-miterlimit="10" stroke-linecap="round" stroke-linejoin="round"/>
<path d="M20.5403 26.4176C20.5403 27.2469 19.8681 27.9192 19.0387 27.9192C18.2094 27.9192 17.5371 27.2469 17.5371 26.4176C17.5371 25.5883 18.2094 24.916 19.0387 24.916C19.8681 24.916 20.5403 25.5883 20.5403 26.4176Z" fill="#ABABAB"/>
</svg>
