<svg width="33" height="37" viewBox="0 0 33 37" fill="none" xmlns="http://www.w3.org/2000/svg">
<path d="M26.6017 2.29478C27.3865 4.22717 28.947 5.75793 30.9171 6.52764C31.9982 6.95004 31.9982 8.451 30.9171 8.8734C28.947 9.64311 27.3864 11.1739 26.6017 13.1063C26.1711 14.1667 24.6408 14.1667 24.2102 13.1063C23.4254 11.1739 21.8649 9.64311 19.8948 8.8734C18.8137 8.451 18.8137 6.95004 19.8948 6.52764C21.8649 5.75793 23.4255 4.22717 24.2102 2.29478C24.6408 1.23442 26.1711 1.23442 26.6017 2.29478Z" stroke="#ABABAB" stroke-width="1.5" stroke-miterlimit="10" stroke-linecap="round" stroke-linejoin="round"/>
<path d="M8.62109 24.0292L11.9907 15.3337C12.0595 15.1683 12.2978 15.168 12.367 15.3333L15.7059 24.0292" stroke="#ABABAB" stroke-width="1.5" stroke-miterlimit="10" stroke-linecap="round" stroke-linejoin="round"/>
<path d="M9.67383 22.1498H14.6738" stroke="#ABABAB" stroke-width="1.5" stroke-miterlimit="10" stroke-linecap="round" stroke-linejoin="round"/>
<path d="M20.2812 15.2095V24.0292" stroke="#ABABAB" stroke-width="1.5" stroke-miterlimit="10" stroke-linecap="round" stroke-linejoin="round"/>
<path d="M23.2262 3.92432H5.47231C3.09833 3.92432 1.17383 5.84882 1.17383 8.2228V31.0162C1.17383 33.3901 3.09833 35.3146 5.47231 35.3146H24.1814C26.5518 35.3146 28.4741 33.3959 28.4799 31.0268" stroke="#ABABAB" stroke-width="1.5" stroke-miterlimit="10" stroke-linecap="round" stroke-linejoin="round"/>
<path d="M28.4785 23.8626V10.4077" stroke="#ABABAB" stroke-width="1.5" stroke-miterlimit="10" stroke-linecap="round" stroke-linejoin="round"/>
<path d="M7.87695 29.4849H20.9529" stroke="#ABABAB" stroke-width="1.5" stroke-miterlimit="10" stroke-linecap="round" stroke-linejoin="round"/>
<path d="M7.87695 9.79858H21.4444" stroke="#ABABAB" stroke-width="1.5" stroke-miterlimit="10" stroke-linecap="round" stroke-linejoin="round"/>
</svg>
