<svg width="33" height="36" viewBox="0 0 33 36" fill="none" xmlns="http://www.w3.org/2000/svg">
<path d="M30.9121 10.7371L30.8701 10.7742L27.4639 13.8445L27.3711 13.9275L27.2871 13.8357L26.7314 13.2214L26.6475 13.1277L26.7412 13.0447L29.8428 10.2742V6.2312L10.2402 1.34448L3.7168 8.2312V12.3093L4.38184 12.9607L4.4707 13.0476L4.38379 13.1375L3.81348 13.7214L3.72559 13.8123L3.63574 13.7234L2.68555 12.7878L2.64844 12.7517V7.80933L2.68262 7.77319L9.84668 0.2146L9.89746 0.161865L9.96777 0.179443L30.8174 5.38452L30.9121 5.40796V10.7371Z" fill="#ABABAB" stroke="#ABABAB" stroke-width="0.25"/>
<mask id="path-2-outside-1_237_3272" maskUnits="userSpaceOnUse" x="-0.1875" y="7.76587" width="12" height="24" fill="black">
<rect fill="white" x="-0.1875" y="7.76587" width="12" height="24"/>
<path d="M3.84196 31.2804C3.68114 31.2804 3.52031 31.2658 3.3741 31.222C0.873963 30.6225 0.0698256 25.2421 1.56114 18.9552C2.26293 16.0164 3.34486 13.3555 4.63148 11.4694C5.9912 9.45176 7.42403 8.51603 8.69603 8.82307C11.1962 9.42252 12.0003 14.8029 10.509 21.0898C9.8072 24.0286 8.72527 26.6895 7.43865 28.5902C6.25438 30.3593 4.997 31.2951 3.84196 31.2951M8.22817 9.56872C7.38017 9.56872 6.32748 10.4021 5.31865 11.908C4.09051 13.721 3.03783 16.2942 2.36527 19.1307C0.888584 25.3591 1.79507 29.9938 3.56417 30.4178C4.45603 30.6225 5.62569 29.7891 6.7661 28.1078C7.99424 26.2802 9.03231 23.7215 9.71948 20.8851C11.1962 14.6567 10.2897 10.022 8.52058 9.59796C8.43286 9.58334 8.33051 9.56872 8.24279 9.56872"/>
</mask>
<path d="M3.84196 31.2804C3.68114 31.2804 3.52031 31.2658 3.3741 31.222C0.873963 30.6225 0.0698256 25.2421 1.56114 18.9552C2.26293 16.0164 3.34486 13.3555 4.63148 11.4694C5.9912 9.45176 7.42403 8.51603 8.69603 8.82307C11.1962 9.42252 12.0003 14.8029 10.509 21.0898C9.8072 24.0286 8.72527 26.6895 7.43865 28.5902C6.25438 30.3593 4.997 31.2951 3.84196 31.2951M8.22817 9.56872C7.38017 9.56872 6.32748 10.4021 5.31865 11.908C4.09051 13.721 3.03783 16.2942 2.36527 19.1307C0.888584 25.3591 1.79507 29.9938 3.56417 30.4178C4.45603 30.6225 5.62569 29.7891 6.7661 28.1078C7.99424 26.2802 9.03231 23.7215 9.71948 20.8851C11.1962 14.6567 10.2897 10.022 8.52058 9.59796C8.43286 9.58334 8.33051 9.56872 8.24279 9.56872" fill="#ABABAB"/>
<path d="M3.3741 31.222L3.44605 30.9821L3.43239 30.9788L3.3741 31.222ZM1.56114 18.9552L1.31797 18.8971L1.31789 18.8975L1.56114 18.9552ZM4.63148 11.4694L4.83801 11.6103L4.8388 11.6091L4.63148 11.4694ZM8.69603 8.82307L8.63737 9.06609L8.63774 9.06618L8.69603 8.82307ZM10.509 21.0898L10.7522 21.1479L10.7522 21.1475L10.509 21.0898ZM7.43865 28.5902L7.23162 28.4501L7.2309 28.4512L7.43865 28.5902ZM5.31865 11.908L5.52563 12.0482L5.52635 12.0472L5.31865 11.908ZM2.36527 19.1307L2.12202 19.073L2.12202 19.073L2.36527 19.1307ZM3.56417 30.4178L3.5059 30.6609L3.50825 30.6615L3.56417 30.4178ZM6.7661 28.1078L6.973 28.2481L6.9736 28.2472L6.7661 28.1078ZM9.71948 20.8851L9.96245 20.944L9.96274 20.9428L9.71948 20.8851ZM8.52058 9.59796L8.57885 9.35485L8.57033 9.35281L8.56168 9.35137L8.52058 9.59796ZM3.84196 31.2804V31.0304C3.69434 31.0304 3.56016 31.0168 3.44594 30.9825L3.3741 31.222L3.30226 31.4614C3.48046 31.5149 3.66793 31.5304 3.84196 31.5304V31.2804ZM3.3741 31.222L3.43239 30.9788C2.89326 30.8496 2.42308 30.4585 2.0419 29.8098C1.65995 29.1598 1.37887 28.2686 1.21812 27.1847C0.896817 25.0181 1.06396 22.1343 1.80439 19.0129L1.56114 18.9552L1.31789 18.8975C0.567001 22.063 0.390558 25.0128 0.72353 27.258C0.88992 28.38 1.18544 29.3392 1.61082 30.0631C2.03698 30.7884 2.60488 31.2946 3.31581 31.4651L3.3741 31.222ZM1.56114 18.9552L1.8043 19.0133C2.5014 16.0941 3.57349 13.464 4.838 11.6103L4.63148 11.4694L4.42496 11.3285C3.11623 13.247 2.02445 15.9387 1.31797 18.8971L1.56114 18.9552ZM4.63148 11.4694L4.8388 11.6091C5.50776 10.6165 6.18372 9.9071 6.83313 9.48394C7.47987 9.06253 8.08591 8.93298 8.63737 9.06609L8.69603 8.82307L8.75469 8.58005C8.03415 8.40612 7.28778 8.59091 6.56017 9.06502C5.83524 9.53738 5.11493 10.3047 4.42416 11.3297L4.63148 11.4694ZM8.69603 8.82307L8.63774 9.06618C9.17688 9.19544 9.64705 9.58654 10.0282 10.2352C10.4102 10.8852 10.6913 11.7764 10.852 12.8603C11.1733 15.0269 11.0062 17.9107 10.2657 21.0321L10.509 21.0898L10.7522 21.1475C11.5031 17.982 11.6796 15.0322 11.3466 12.787C11.1802 11.665 10.8847 10.7058 10.4593 9.98189C10.0331 9.25667 9.46526 8.75042 8.75432 8.57996L8.69603 8.82307ZM10.509 21.0898L10.2658 21.0318C9.56878 23.9507 8.49663 26.5813 7.23163 28.4501L7.43865 28.5902L7.64568 28.7304C8.95391 26.7978 10.0456 24.1065 10.7522 21.1479L10.509 21.0898ZM7.43865 28.5902L7.2309 28.4512C6.05638 30.2057 4.86424 31.0451 3.84196 31.0451V31.2951V31.5451C5.12976 31.5451 6.45237 30.513 7.6464 28.7293L7.43865 28.5902ZM8.22817 9.56872V9.31872C7.72436 9.31872 7.19497 9.56412 6.67746 9.97851C6.1565 10.3957 5.62474 11.0019 5.11095 11.7689L5.31865 11.908L5.52635 12.0472C6.02139 11.3082 6.52039 10.7448 6.98998 10.3688C7.46303 9.99002 7.88398 9.81872 8.22817 9.81872V9.56872ZM5.31865 11.908L5.11167 11.7678C3.86197 13.6126 2.79939 16.2162 2.12202 19.073L2.36527 19.1307L2.60853 19.1883C3.27626 16.3723 4.31906 13.8294 5.52563 12.0482L5.31865 11.908ZM2.36527 19.1307L2.12202 19.073C1.37842 22.2093 1.23165 24.9565 1.49971 26.9837C1.6336 27.9962 1.87254 28.8412 2.20152 29.4675C2.52839 30.0897 2.96398 30.5311 3.5059 30.6609L3.56417 30.4178L3.62244 30.1747C3.27981 30.0926 2.93867 29.7956 2.64416 29.2349C2.35176 28.6783 2.12468 27.8958 1.99539 26.9181C1.7371 24.9648 1.87544 22.2804 2.60853 19.1883L2.36527 19.1307ZM3.56417 30.4178L3.50825 30.6615C4.05351 30.7866 4.64305 30.5864 5.21788 30.173C5.79623 29.7572 6.39301 29.1032 6.973 28.2481L6.7661 28.1078L6.5592 27.9674C5.99878 28.7937 5.44052 29.3971 4.92598 29.7671C4.40791 30.1396 3.96669 30.2537 3.62009 30.1742L3.56417 30.4178ZM6.7661 28.1078L6.9736 28.2472C8.22299 26.388 9.27065 23.7995 9.96245 20.944L9.71948 20.8851L9.47651 20.8263C8.79396 23.6436 7.76549 26.1723 6.5586 27.9683L6.7661 28.1078ZM9.71948 20.8851L9.96274 20.9428C10.7063 17.8064 10.8531 15.0593 10.585 13.0321C10.4512 12.0196 10.2122 11.1746 9.88323 10.5483C9.55636 9.92607 9.12077 9.48473 8.57885 9.35485L8.52058 9.59796L8.46232 9.84108C8.80495 9.9232 9.14608 10.2202 9.44059 10.7808C9.73299 11.3375 9.96008 12.12 10.0894 13.0977C10.3476 15.051 10.2093 17.7354 9.47622 20.8275L9.71948 20.8851ZM8.52058 9.59796L8.56168 9.35137C8.47311 9.3366 8.35298 9.31872 8.24279 9.31872V9.56872V9.81872C8.30805 9.81872 8.39261 9.83008 8.47948 9.84456L8.52058 9.59796Z" fill="#ABABAB" mask="url(#path-2-outside-1_237_3272)"/>
<mask id="path-4-outside-2_237_3272" maskUnits="userSpaceOnUse" x="2.76953" y="8.18945" width="30" height="28" fill="black">
<rect fill="white" x="2.76953" y="8.18945" width="30" height="28"/>
<path d="M24.7795 35.4921C24.5894 35.4921 24.4139 35.4774 24.2385 35.4336L3.76953 31.2667L3.93036 30.4626L24.4139 34.6441C25.4081 34.878 26.6509 34.0885 27.8206 32.4802C29.0779 30.7403 30.1453 28.2694 30.7886 25.5354C32.0898 20.0819 31.3588 15.0377 29.1949 14.526L9.20843 9.97897L9.38388 9.18945L29.385 13.7365C32.0606 14.3652 33.0255 19.6432 31.5781 25.7255C30.9055 28.5765 29.7944 31.1351 28.4785 32.9627C27.265 34.6294 25.9784 35.5067 24.7795 35.5067"/>
</mask>
<path d="M24.7795 35.4921C24.5894 35.4921 24.4139 35.4774 24.2385 35.4336L3.76953 31.2667L3.93036 30.4626L24.4139 34.6441C25.4081 34.878 26.6509 34.0885 27.8206 32.4802C29.0779 30.7403 30.1453 28.2694 30.7886 25.5354C32.0898 20.0819 31.3588 15.0377 29.1949 14.526L9.20843 9.97897L9.38388 9.18945L29.385 13.7365C32.0606 14.3652 33.0255 19.6432 31.5781 25.7255C30.9055 28.5765 29.7944 31.1351 28.4785 32.9627C27.265 34.6294 25.9784 35.5067 24.7795 35.5067" fill="#ABABAB"/>
<path d="M24.2385 35.4336L24.2992 35.1908L24.2884 35.1886L24.2385 35.4336ZM3.76953 31.2667L3.52439 31.2177L3.47552 31.462L3.71966 31.5117L3.76953 31.2667ZM3.93036 30.4626L3.98036 30.2176L3.73444 30.1674L3.68521 30.4135L3.93036 30.4626ZM24.4139 34.6441L24.4712 34.4006L24.4639 34.3991L24.4139 34.6441ZM27.8206 32.4802L28.0227 32.6273L28.0232 32.6266L27.8206 32.4802ZM30.7886 25.5354L30.5454 25.4774L30.5452 25.4781L30.7886 25.5354ZM29.1949 14.526L29.2524 14.2827L29.2504 14.2822L29.1949 14.526ZM9.20843 9.97897L8.96438 9.92474L8.91042 10.1676L9.15297 10.2227L9.20843 9.97897ZM9.38388 9.18945L9.4393 8.94567L9.19433 8.88998L9.13983 9.13522L9.38388 9.18945ZM29.385 13.7365L29.4422 13.4931L29.4404 13.4927L29.385 13.7365ZM31.5781 25.7255L31.3349 25.6676L31.3348 25.6681L31.5781 25.7255ZM28.4785 32.9627L28.6806 33.1098L28.6814 33.1088L28.4785 32.9627ZM24.7795 35.4921V35.2421C24.6023 35.2421 24.4485 35.2284 24.2991 35.1911L24.2385 35.4336L24.1779 35.6761C24.3793 35.7265 24.5765 35.7421 24.7795 35.7421V35.4921ZM24.2385 35.4336L24.2884 35.1886L3.8194 31.0217L3.76953 31.2667L3.71966 31.5117L24.1886 35.6786L24.2385 35.4336ZM3.76953 31.2667L4.01468 31.3157L4.1755 30.5116L3.93036 30.4626L3.68521 30.4135L3.52439 31.2177L3.76953 31.2667ZM3.93036 30.4626L3.88036 30.7075L24.3639 34.889L24.4139 34.6441L24.4639 34.3991L3.98036 30.2176L3.93036 30.4626ZM24.4139 34.6441L24.3567 34.8874C24.9417 35.0251 25.5704 34.8547 26.1855 34.464C26.8015 34.0727 27.4262 33.4475 28.0227 32.6272L27.8206 32.4802L27.6184 32.3332C27.0452 33.1212 26.4638 33.6949 25.9174 34.0419C25.3702 34.3896 24.8804 34.497 24.4712 34.4007L24.4139 34.6441ZM27.8206 32.4802L28.0232 32.6266C29.3043 30.8539 30.383 28.3506 31.0319 25.5926L30.7886 25.5354L30.5452 25.4781C29.9075 28.1883 28.8516 30.6268 27.6179 32.3338L27.8206 32.4802ZM30.7886 25.5354L31.0317 25.5934C31.6881 22.8426 31.8346 20.1858 31.5386 18.1417C31.3907 17.1205 31.1305 16.239 30.758 15.5731C30.3857 14.9078 29.8859 14.4325 29.2524 14.2827L29.1949 14.526L29.1374 14.7693C29.5859 14.8754 29.9888 15.2225 30.3216 15.8173C30.6541 16.4115 30.901 17.2279 31.0437 18.2133C31.3289 20.1826 31.1903 22.7746 30.5454 25.4774L30.7886 25.5354ZM29.1949 14.526L29.2504 14.2822L9.26389 9.7352L9.20843 9.97897L9.15297 10.2227L29.1394 14.7698L29.1949 14.526ZM9.20843 9.97897L9.45247 10.0332L9.62792 9.24369L9.38388 9.18945L9.13983 9.13522L8.96438 9.92474L9.20843 9.97897ZM9.38388 9.18945L9.32845 9.43323L29.3296 13.9803L29.385 13.7365L29.4404 13.4927L9.4393 8.94567L9.38388 9.18945ZM29.385 13.7365L29.3278 13.9799C30.5088 14.2574 31.3902 15.5901 31.7817 17.7309C32.1688 19.847 32.0527 22.6511 31.3349 25.6676L31.5781 25.7255L31.8213 25.7833C32.5509 22.7176 32.6761 19.8416 32.2736 17.6409C31.8756 15.465 30.9368 13.8443 29.4422 13.4931L29.385 13.7365ZM31.5781 25.7255L31.3348 25.6681C30.6679 28.4948 29.5682 31.0213 28.2756 32.8166L28.4785 32.9627L28.6814 33.1088C30.0205 31.2489 31.1431 28.6582 31.8214 25.7829L31.5781 25.7255ZM28.4785 32.9627L28.2764 32.8155C27.0775 34.4621 25.8559 35.2567 24.7795 35.2567V35.5067V35.7567C26.1008 35.7567 27.4524 34.7968 28.6806 33.1098L28.4785 32.9627Z" fill="#ABABAB" mask="url(#path-4-outside-2_237_3272)"/>
<path d="M25.5244 18.8818C28.3128 18.8818 30.5769 21.1453 30.5771 23.9336C30.5771 26.7221 28.3129 28.9863 25.5244 28.9863C22.7361 28.9861 20.4727 26.7219 20.4727 23.9336C20.4729 21.1454 22.7363 18.8821 25.5244 18.8818ZM25.5244 19.9502C23.3276 19.9504 21.5412 21.7367 21.541 23.9336C21.541 26.1306 23.3274 27.9168 25.5244 27.917C27.7216 27.917 29.5078 26.1308 29.5078 23.9336C29.5076 21.7366 27.7214 19.9502 25.5244 19.9502Z" fill="#ABABAB" stroke="#ABABAB" stroke-width="0.25"/>
<path d="M12.2588 20.8621C12.9034 18.1487 15.6319 16.4692 18.3311 17.114H18.3301L26.6191 18.9851L26.7412 19.0125L26.7139 19.1345L26.5381 19.9236L26.5107 20.0466L26.3887 20.0183L18.084 18.1326H18.083C16.0095 17.6382 13.9215 18.8729 13.3291 20.8835L13.2773 21.0808C12.7671 23.2212 14.0993 25.3758 16.2393 25.8718H16.2383L24.8359 27.8162L24.957 27.8435L24.9297 27.9656L24.7617 28.7214L24.7656 28.7322L24.8359 28.9421L24.6201 28.8933L16.0078 26.949L16.0068 26.948C13.2933 26.3033 11.6142 23.5755 12.2588 20.8621Z" fill="#ABABAB" stroke="#ABABAB" stroke-width="0.25"/>
<path d="M22.6526 8.25907L30.6084 10.0068L30.3792 11.0503L22.4234 9.30254L22.6526 8.25907Z" fill="#ABABAB" stroke="#ABABAB" stroke-width="0.25"/>
<path d="M9.95215 5.46924L18.1396 7.26709L18.2617 7.29443L18.2354 7.4165L18.0596 8.22021L18.0332 8.34229L17.9102 8.31592L10.2598 6.63428L6.77148 10.3843L6.6875 10.4741L6.5957 10.3921L5.99609 9.85107L5.90234 9.76611L5.98828 9.67334L9.83301 5.50635L9.88184 5.45361L9.95215 5.46924Z" fill="#ABABAB" stroke="#ABABAB" stroke-width="0.25"/>
<path d="M18.7852 4.09619L24.1943 5.3833L24.3262 5.41455L24.2852 5.54346L21.9014 12.8979L21.8662 13.0073L21.7539 12.981L16.3438 11.6938L16.2119 11.6626L16.2539 11.5337L18.6377 4.18018L18.6729 4.06982L18.7852 4.09619ZM17.5859 10.896L21.1582 11.7456L22.9521 6.18018L19.3799 5.33154L17.5859 10.896Z" fill="#ABABAB" stroke="#ABABAB" stroke-width="0.25"/>
</svg>
