<svg width="45" height="30" viewBox="0 0 45 30" fill="none" xmlns="http://www.w3.org/2000/svg">
<path d="M25.2164 24.209C24.9502 27.0519 22.4298 29.1408 19.5868 28.8746C16.7439 28.6083 14.6551 26.0879 14.9213 23.2449C15.1875 20.4021 17.7079 18.3132 20.5508 18.5795C23.3938 18.8457 25.4826 21.3661 25.2164 24.209Z" stroke="#ABABAB" stroke-width="1.5" stroke-miterlimit="10" stroke-linecap="round" stroke-linejoin="round"/>
<path d="M43.5826 17.3235V13.157H38.7534C37.3779 13.157 36.1725 14.0776 35.8106 15.4046L32.1191 28.9399H43.5826V24.888" stroke="#ABABAB" stroke-width="1.5" stroke-miterlimit="10" stroke-linecap="round" stroke-linejoin="round"/>
<path d="M10.3535 14.1235L12.8055 14.353" stroke="#ABABAB" stroke-width="1.5" stroke-miterlimit="10" stroke-linecap="round" stroke-linejoin="round"/>
<path d="M8.32812 28.9399H32.1178" stroke="#ABABAB" stroke-width="1.5" stroke-miterlimit="10" stroke-linecap="round" stroke-linejoin="round"/>
<path d="M21.9036 23.8976C21.8086 24.9113 20.9099 25.6561 19.8963 25.5612C18.8827 25.4662 18.1378 24.5676 18.2328 23.554C18.3277 22.5403 19.2263 21.7954 20.24 21.8904C21.2537 21.9853 21.9984 22.8839 21.9036 23.8976Z" stroke="#ABABAB" stroke-width="1.5" stroke-miterlimit="10" stroke-linecap="round" stroke-linejoin="round"/>
<path d="M34.2713 21.0483L33.0181 20.887C31.572 20.701 30.2516 21.7294 30.0781 23.1772L30.005 23.7866C29.886 24.7795 30.6088 25.6753 31.6046 25.7687L32.9495 25.895L34.2713 21.0483Z" stroke="#ABABAB" stroke-width="1.5" stroke-miterlimit="10" stroke-linecap="round" stroke-linejoin="round"/>
<path d="M34.2713 21.0483L33.0181 20.887C31.572 20.701 30.2516 21.7294 30.0781 23.1772L30.005 23.7866C29.886 24.7795 30.6088 25.6753 31.6046 25.7687L32.9495 25.895L34.2713 21.0483Z" stroke="#ABABAB" stroke-width="1.5" stroke-miterlimit="10" stroke-linecap="round" stroke-linejoin="round"/>
<path d="M33.5936 12.3472L27.2871 6.19219L32.5331 7.62411L33.6941 2.7131L36.202 7.29094L39.9001 5.50357L38.2424 9.62674" stroke="#ABABAB" stroke-width="1.5" stroke-miterlimit="10" stroke-linecap="round" stroke-linejoin="round"/>
<path d="M35.0087 18.3459L32.9491 25.895L25.0442 25.1357C25.1286 24.8379 25.1867 24.5282 25.2165 24.2091C25.4828 21.3654 23.3941 18.845 20.5513 18.5788C17.7076 18.3126 15.1872 20.4021 14.9211 23.245C14.892 23.5564 14.8911 23.8636 14.9159 24.1647L4.7168 23.1585L6.74971 10.9558L6.74989 1.11309C6.74989 1.11309 8.40936 1.22315 10.0944 1.47732C12.3964 1.82542 14.7214 3.08816 16.6949 4.80138C18.6682 6.51375 20.2901 8.67747 21.1826 10.8267C21.6629 11.9819 22.6544 12.847 23.8642 13.1653L28.1515 14.2932C28.2991 14.4017 28.41 14.5526 28.4681 14.7258L29.1592 16.7718C29.3383 17.3033 29.9569 17.5388 30.4441 17.2606L32.4406 16.1225C32.8382 15.8964 33.3425 16.0073 33.6077 16.3793L35.0087 18.3459Z" stroke="#ABABAB" stroke-width="1.5" stroke-miterlimit="10" stroke-linecap="round" stroke-linejoin="round"/>
<path d="M18.0446 12.2271L17.4902 11.0458C16.1139 8.11403 12.6635 5.04755 9.17232 4.67343C7.77853 4.52412 6.75 4.43223 6.75 4.43223V10.9556L18.0446 12.2271Z" stroke="#ABABAB" stroke-width="1.5" stroke-miterlimit="10" stroke-linecap="round" stroke-linejoin="round"/>
<path d="M1.60547 0.868106L6.75009 1.11306V10.9521L1.60547 10.3798" stroke="#ABABAB" stroke-width="1.5" stroke-miterlimit="10" stroke-linecap="round" stroke-linejoin="round"/>
<path d="M1.60547 10.3798L6.75009 10.9521L4.717 23.1582L1.60547 22.8464" stroke="#ABABAB" stroke-width="1.5" stroke-miterlimit="10" stroke-linecap="round" stroke-linejoin="round"/>
<path d="M1.60547 10.3798L6.75009 10.9521V4.43251L1.60547 4.15045" stroke="#ABABAB" stroke-width="1.5" stroke-miterlimit="10" stroke-linecap="round" stroke-linejoin="round"/>
</svg>
