<svg width="51" height="37" viewBox="0 0 51 37" fill="none" xmlns="http://www.w3.org/2000/svg">
<path d="M25.8498 6.09656C15.9741 6.09656 7.20637 11.0297 1.69922 18.6555C7.20656 26.2813 15.9741 31.2145 25.8498 31.2145C35.7256 31.2145 44.4933 26.2813 50.0006 18.6555C44.4933 11.0297 35.7256 6.09656 25.8498 6.09656Z" stroke="#ABABAB" stroke-width="1.5" stroke-miterlimit="10" stroke-linecap="round" stroke-linejoin="round"/>
<path d="M34.7292 27.5372C39.6337 22.6326 39.6337 14.6808 34.7292 9.7763C29.8247 4.87177 21.8729 4.87177 16.9683 9.7763C12.0638 14.6808 12.0638 22.6326 16.9683 27.5372C21.8729 32.4417 29.8247 32.4417 34.7292 27.5372Z" stroke="#ABABAB" stroke-width="1.5" stroke-miterlimit="10" stroke-linecap="round" stroke-linejoin="round"/>
<path d="M32.9723 19.8904C30.6045 21.7333 27.294 21.5665 25.1176 19.3901C22.9412 17.2137 22.7744 13.9032 24.6173 11.5354C23.237 11.7967 21.9181 12.347 20.8498 13.4153C18.0214 16.2437 18.0214 20.8294 20.8498 23.6579C23.6783 26.4863 28.264 26.4863 31.0924 23.6579C32.1607 22.5896 32.711 21.2707 32.9723 19.8904Z" stroke="#ABABAB" stroke-width="1.5" stroke-miterlimit="10" stroke-linecap="round" stroke-linejoin="round"/>
</svg>
