<svg width="44" height="33" viewBox="0 0 44 33" fill="none" xmlns="http://www.w3.org/2000/svg">
<path d="M37.4925 10.4183V6.4541H33.5283" stroke="#ABABAB" stroke-width="1.5" stroke-miterlimit="10" stroke-linecap="round" stroke-linejoin="round"/>
<path d="M33.5283 26.4466H37.4925V22.4824" stroke="#ABABAB" stroke-width="1.5" stroke-miterlimit="10" stroke-linecap="round" stroke-linejoin="round"/>
<path d="M6.46973 22.4824V26.4466H10.4339" stroke="#ABABAB" stroke-width="1.5" stroke-miterlimit="10" stroke-linecap="round" stroke-linejoin="round"/>
<path d="M10.4339 6.4541H6.46973V10.4183" stroke="#ABABAB" stroke-width="1.5" stroke-miterlimit="10" stroke-linecap="round" stroke-linejoin="round"/>
<path d="M42.7499 1.2998H1.21191V31.5144H42.7499V1.2998Z" stroke="#ABABAB" stroke-width="1.5" stroke-miterlimit="10" stroke-linecap="round" stroke-linejoin="round"/>
<path opacity="0.8" d="M11.2261 11.0223H13.7381V15.4063H18.3621V11.0223H20.8741V22.4463H18.3621V17.5183H13.7381V22.4463H11.2261V11.0223ZM25.5974 20.3343H27.8374C28.2001 20.3343 28.5521 20.2756 28.8934 20.1583C29.2348 20.041 29.5388 19.849 29.8054 19.5823C30.0721 19.305 30.2854 18.9476 30.4454 18.5103C30.6054 18.073 30.6854 17.5396 30.6854 16.9103C30.6854 16.3343 30.6268 15.817 30.5094 15.3583C30.4028 14.889 30.2214 14.489 29.9654 14.1583C29.7094 13.8276 29.3681 13.577 28.9414 13.4063C28.5254 13.225 28.0081 13.1343 27.3894 13.1343H25.5974V20.3343ZM23.0854 11.0223H28.0134C28.7494 11.0223 29.4321 11.1396 30.0614 11.3743C30.7014 11.609 31.2508 11.961 31.7094 12.4303C32.1788 12.8996 32.5414 13.4863 32.7974 14.1903C33.0641 14.8943 33.1974 15.721 33.1974 16.6703C33.1974 17.5023 33.0908 18.2703 32.8774 18.9743C32.6641 19.6783 32.3388 20.2863 31.9014 20.7983C31.4748 21.3103 30.9361 21.7156 30.2854 22.0143C29.6454 22.3023 28.8881 22.4463 28.0134 22.4463H23.0854V11.0223Z" fill="#ABABAB"/>
</svg>
