<svg width="58" height="33" viewBox="0 0 58 33" fill="none" xmlns="http://www.w3.org/2000/svg">
<path d="M51.3626 10.6673V6.70312H47.3984" stroke="#ABABAB" stroke-width="1.5" stroke-miterlimit="10" stroke-linecap="round" stroke-linejoin="round"/>
<path d="M47.3984 26.6966H51.3626V22.7324" stroke="#ABABAB" stroke-width="1.5" stroke-miterlimit="10" stroke-linecap="round" stroke-linejoin="round"/>
<path d="M6.33984 22.7324V26.6966H10.3041" stroke="#ABABAB" stroke-width="1.5" stroke-miterlimit="10" stroke-linecap="round" stroke-linejoin="round"/>
<path d="M10.3041 6.70312H6.33984V10.6673" stroke="#ABABAB" stroke-width="1.5" stroke-miterlimit="10" stroke-linecap="round" stroke-linejoin="round"/>
<path d="M56.4269 1.54883H1.26953V31.7634H56.4269V1.54883Z" stroke="#ABABAB" stroke-width="1.5" stroke-miterlimit="10" stroke-linecap="round" stroke-linejoin="round"/>
<path opacity="0.8" d="M12.3228 11.2723H14.8348V15.6563H19.4588V11.2723H21.9708V22.6963H19.4588V17.7683H14.8348V22.6963H12.3228V11.2723ZM26.6941 20.5843H28.9341C29.2968 20.5843 29.6488 20.5256 29.9901 20.4083C30.3315 20.291 30.6355 20.099 30.9021 19.8323C31.1688 19.555 31.3821 19.1976 31.5421 18.7603C31.7021 18.323 31.7821 17.7896 31.7821 17.1603C31.7821 16.5843 31.7235 16.067 31.6061 15.6083C31.4995 15.139 31.3181 14.739 31.0621 14.4083C30.8061 14.0776 30.4648 13.827 30.0381 13.6563C29.6221 13.475 29.1048 13.3843 28.4861 13.3843H26.6941V20.5843ZM24.1821 11.2723H29.1101C29.8461 11.2723 30.5288 11.3896 31.1581 11.6243C31.7981 11.859 32.3475 12.211 32.8061 12.6803C33.2755 13.1496 33.6381 13.7363 33.8941 14.4403C34.1608 15.1443 34.2941 15.971 34.2941 16.9203C34.2941 17.7523 34.1875 18.5203 33.9741 19.2243C33.7608 19.9283 33.4355 20.5363 32.9981 21.0483C32.5715 21.5603 32.0328 21.9656 31.3821 22.2643C30.7421 22.5523 29.9848 22.6963 29.1101 22.6963H24.1821V11.2723ZM38.5535 16.4403H41.3055C41.8815 16.4403 42.3135 16.3123 42.6015 16.0563C42.8895 15.8003 43.0335 15.3843 43.0335 14.8083C43.0335 14.2536 42.8895 13.8536 42.6015 13.6083C42.3135 13.3523 41.8815 13.2243 41.3055 13.2243H38.5535V16.4403ZM36.0415 11.2723H42.2015C42.7135 11.2723 43.1722 11.3576 43.5775 11.5283C43.9935 11.6883 44.3455 11.9123 44.6335 12.2003C44.9322 12.4883 45.1562 12.8243 45.3055 13.2083C45.4655 13.5816 45.5455 13.987 45.5455 14.4243C45.5455 15.0963 45.4015 15.6776 45.1135 16.1683C44.8362 16.659 44.3775 17.0323 43.7375 17.2883V17.3203C44.0468 17.4056 44.3028 17.539 44.5055 17.7203C44.7082 17.891 44.8735 18.099 45.0015 18.3443C45.1295 18.579 45.2202 18.8403 45.2735 19.1283C45.3375 19.4163 45.3802 19.7043 45.4015 19.9923C45.4122 20.1736 45.4228 20.387 45.4335 20.6323C45.4442 20.8776 45.4602 21.1283 45.4815 21.3843C45.5135 21.6403 45.5562 21.8856 45.6095 22.1203C45.6735 22.3443 45.7642 22.5363 45.8815 22.6963H43.3695C43.2308 22.3336 43.1455 21.9016 43.1135 21.4003C43.0815 20.899 43.0335 20.419 42.9695 19.9603C42.8842 19.363 42.7028 18.9256 42.4255 18.6483C42.1482 18.371 41.6948 18.2323 41.0655 18.2323H38.5535V22.6963H36.0415V11.2723Z" fill="#ABABAB"/>
</svg>
