<svg width="58" height="33" viewBox="0 0 58 33" fill="none" xmlns="http://www.w3.org/2000/svg">
<path d="M51.4955 10.6014V6.63721H47.5312" stroke="#ABABAB" stroke-width="1.5" stroke-miterlimit="10" stroke-linecap="round" stroke-linejoin="round"/>
<path d="M47.5312 26.6307H51.4955V22.6665" stroke="#ABABAB" stroke-width="1.5" stroke-miterlimit="10" stroke-linecap="round" stroke-linejoin="round"/>
<path d="M6.47266 22.6665V26.6307H10.4369" stroke="#ABABAB" stroke-width="1.5" stroke-miterlimit="10" stroke-linecap="round" stroke-linejoin="round"/>
<path d="M10.4369 6.63721H6.47266V10.6014" stroke="#ABABAB" stroke-width="1.5" stroke-miterlimit="10" stroke-linecap="round" stroke-linejoin="round"/>
<path d="M56.5597 1.48291H1.40234V31.6975H56.5597V1.48291Z" stroke="#ABABAB" stroke-width="1.5" stroke-miterlimit="10" stroke-linecap="round" stroke-linejoin="round"/>
<path opacity="0.8" d="M22.7399 22.6304H20.2439L18.3079 14.8544H18.2759L16.3719 22.6304H13.8279L10.8039 11.2064H13.3159L15.1239 18.9824H15.1559L17.1399 11.2064H19.4919L21.4439 19.0784H21.4759L23.3479 11.2064H25.8119L22.7399 22.6304ZM29.4812 20.5184H31.7212C32.0839 20.5184 32.4359 20.4597 32.7772 20.3424C33.1186 20.225 33.4226 20.033 33.6892 19.7664C33.9559 19.489 34.1692 19.1317 34.3292 18.6944C34.4892 18.257 34.5692 17.7237 34.5692 17.0944C34.5692 16.5184 34.5106 16.001 34.3932 15.5424C34.2866 15.073 34.1052 14.673 33.8492 14.3424C33.5932 14.0117 33.2519 13.761 32.8252 13.5904C32.4092 13.409 31.8919 13.3184 31.2732 13.3184H29.4812V20.5184ZM26.9692 11.2064H31.8972C32.6332 11.2064 33.3159 11.3237 33.9452 11.5584C34.5852 11.793 35.1346 12.145 35.5932 12.6144C36.0626 13.0837 36.4252 13.6704 36.6812 14.3744C36.9479 15.0784 37.0812 15.905 37.0812 16.8544C37.0812 17.6864 36.9746 18.4544 36.7612 19.1584C36.5479 19.8624 36.2226 20.4704 35.7852 20.9824C35.3586 21.4944 34.8199 21.8997 34.1692 22.1984C33.5292 22.4864 32.7719 22.6304 31.8972 22.6304H26.9692V11.2064ZM41.3406 16.3744H44.0926C44.6686 16.3744 45.1006 16.2464 45.3886 15.9904C45.6766 15.7344 45.8206 15.3184 45.8206 14.7424C45.8206 14.1877 45.6766 13.7877 45.3886 13.5424C45.1006 13.2864 44.6686 13.1584 44.0926 13.1584H41.3406V16.3744ZM38.8286 11.2064H44.9886C45.5006 11.2064 45.9593 11.2917 46.3646 11.4624C46.7806 11.6224 47.1326 11.8464 47.4206 12.1344C47.7193 12.4224 47.9433 12.7584 48.0926 13.1424C48.2526 13.5157 48.3326 13.921 48.3326 14.3584C48.3326 15.0304 48.1886 15.6117 47.9006 16.1024C47.6233 16.593 47.1646 16.9664 46.5246 17.2224V17.2544C46.8339 17.3397 47.0899 17.473 47.2926 17.6544C47.4953 17.825 47.6606 18.033 47.7886 18.2784C47.9166 18.513 48.0073 18.7744 48.0606 19.0624C48.1246 19.3504 48.1673 19.6384 48.1886 19.9264C48.1993 20.1077 48.2099 20.321 48.2206 20.5664C48.2313 20.8117 48.2473 21.0624 48.2686 21.3184C48.3006 21.5744 48.3433 21.8197 48.3966 22.0544C48.4606 22.2784 48.5513 22.4704 48.6686 22.6304H46.1566C46.0179 22.2677 45.9326 21.8357 45.9006 21.3344C45.8686 20.833 45.8206 20.353 45.7566 19.8944C45.6713 19.297 45.4899 18.8597 45.2126 18.5824C44.9353 18.305 44.4819 18.1664 43.8526 18.1664H41.3406V22.6304H38.8286V11.2064Z" fill="#ABABAB"/>
</svg>
