<svg width="39" height="39" viewBox="0 0 39 39" fill="none" xmlns="http://www.w3.org/2000/svg">
<path d="M37.2422 2.0564L33.6016 5.69701" stroke="#ABABAB" stroke-width="1.5" stroke-miterlimit="10" stroke-linecap="round" stroke-linejoin="round"/>
<path d="M32.7617 1.33549L37.9995 1.29883L37.9629 6.53665" stroke="#ABABAB" stroke-width="1.5" stroke-miterlimit="10" stroke-linecap="round" stroke-linejoin="round"/>
<path d="M2.17578 2.0564L5.8164 5.69701" stroke="#ABABAB" stroke-width="1.5" stroke-miterlimit="10" stroke-linecap="round" stroke-linejoin="round"/>
<path d="M1.45463 6.53665L1.41797 1.29883L6.65579 1.33549" stroke="#ABABAB" stroke-width="1.5" stroke-miterlimit="10" stroke-linecap="round" stroke-linejoin="round"/>
<path d="M2.17578 37.1233L5.8164 33.4827" stroke="#ABABAB" stroke-width="1.5" stroke-miterlimit="10" stroke-linecap="round" stroke-linejoin="round"/>
<path d="M6.65579 37.8437L1.41797 37.8804L1.45463 32.6426" stroke="#ABABAB" stroke-width="1.5" stroke-miterlimit="10" stroke-linecap="round" stroke-linejoin="round"/>
<path d="M37.2422 37.1233L33.6016 33.4827" stroke="#ABABAB" stroke-width="1.5" stroke-miterlimit="10" stroke-linecap="round" stroke-linejoin="round"/>
<path d="M37.9629 32.6426L37.9995 37.8804L32.7617 37.8437" stroke="#ABABAB" stroke-width="1.5" stroke-miterlimit="10" stroke-linecap="round" stroke-linejoin="round"/>
<path d="M19.7088 25.2304C22.8099 25.2304 25.3238 22.7053 25.3238 19.5904C25.3238 16.4756 22.8099 13.9504 19.7088 13.9504C16.6077 13.9504 14.0938 16.4756 14.0938 19.5904C14.0938 22.7053 16.6077 25.2304 19.7088 25.2304Z" stroke="#ABABAB" stroke-width="1.5" stroke-miterlimit="10" stroke-linecap="round" stroke-linejoin="round"/>
<path d="M38.0001 19.5896C38.0001 19.5896 29.8109 7.13477 19.709 7.13477C9.60716 7.13477 1.41797 19.5896 1.41797 19.5896" stroke="#ABABAB" stroke-width="1.5" stroke-miterlimit="10" stroke-linecap="round" stroke-linejoin="round"/>
<path d="M1.41792 19.5899C1.41792 19.5899 9.60711 32.0447 19.709 32.0447C29.8108 32.0447 38 19.5899 38 19.5899" stroke="#ABABAB" stroke-width="1.5" stroke-miterlimit="10" stroke-linecap="round" stroke-linejoin="round"/>
</svg>
