<svg width="164" height="50" viewBox="0 0 164 50" fill="none" xmlns="http://www.w3.org/2000/svg">
<path d="M35.296 12.2271V28.0065C35.296 28.2623 35.1944 28.5076 35.0135 28.6885C34.8327 28.8694 34.5874 28.971 34.3316 28.971H29.3504C29.0947 28.9709 28.8495 28.8692 28.6686 28.6884C28.4878 28.5075 28.3861 28.2623 28.386 28.0065V2.34047C28.386 2.08469 28.4876 1.83938 28.6685 1.65852C28.8493 1.47765 29.0947 1.37604 29.3504 1.37604H33.9599C34.2157 1.37604 34.461 1.47765 34.6419 1.65852C34.8228 1.83938 34.9244 2.08469 34.9244 2.34047V5.95493C34.9244 5.95493 36.5721 0.799006 41.4623 0.799006C41.4623 0.799006 46.2993 0.214314 48.266 5.58285C48.266 5.58285 49.9137 0.799006 54.9102 0.799006C54.9102 0.799006 62.3407 0.357191 62.3407 8.04579L62.3972 12.2802V28.0597C62.3972 28.3155 62.2956 28.5608 62.1148 28.7417C61.9339 28.9225 61.6886 29.0241 61.4328 29.0241H56.4512C56.1955 29.024 55.9503 28.9224 55.7694 28.7415C55.5886 28.5607 55.4869 28.3154 55.4868 28.0597L55.4413 10.8451C55.5829 6.94699 52.4294 7.23062 52.4294 7.23062C48.4607 7.30163 48.8426 12.2802 48.8426 12.2802V28.0597C48.8426 28.3155 48.741 28.5608 48.5601 28.7417C48.3793 28.9225 48.1339 29.0241 47.8782 29.0241H42.897C42.6413 29.024 42.396 28.9224 42.2152 28.7415C42.0343 28.5607 41.9327 28.3154 41.9326 28.0597V11.2346C41.9326 11.2346 42.2239 7.1949 38.68 7.1949C38.6804 7.1949 35.1723 6.73438 35.296 12.2271ZM163.697 12.1799V27.9589C163.696 28.2147 163.595 28.4599 163.414 28.6407C163.233 28.8216 162.988 28.9232 162.732 28.9233L157.552 29.0237C157.296 29.0236 157.051 28.9219 156.87 28.7411C156.689 28.5603 156.587 28.315 156.587 28.0593V11.2346C156.587 11.2346 156.878 7.1949 153.335 7.1949C153.335 7.1949 149.951 7.02821 149.951 13.362V28.0061C149.95 28.2619 149.849 28.5071 149.668 28.6879C149.487 28.8688 149.242 28.9704 148.986 28.9705H144.005C143.749 28.9704 143.504 28.8688 143.323 28.6879C143.142 28.5071 143.04 28.2619 143.04 28.0061V2.34047C143.04 2.08472 143.142 1.83948 143.323 1.65864C143.504 1.4778 143.749 1.37616 144.005 1.37604H148.614C148.87 1.37604 149.115 1.47765 149.296 1.65852C149.477 1.83938 149.579 2.08469 149.579 2.34047V5.95493C149.579 5.95493 151.226 0.799006 156.116 0.799006C156.116 0.799006 161.355 0.00424999 163.119 5.48292C163.12 5.4825 163.697 6.61276 163.697 12.1799ZM127.731 0.692698C121.361 0.692698 116.196 6.06124 116.196 15.0974C116.196 23.053 120.183 29.5021 127.731 29.5021C134.853 29.5021 139.265 23.053 139.265 15.0974C139.265 6.2207 134.101 0.692698 127.731 0.692698ZM131.751 15.4163C131.751 18.8182 131.326 20.6254 131.326 20.6254C130.721 24.2216 128.11 24.2267 127.725 24.2075C127.31 24.2241 124.677 24.1867 124.133 20.6254C124.133 20.6254 123.707 18.8182 123.707 15.4163V14.8495C123.707 11.4476 124.133 9.6404 124.133 9.6404C124.677 6.0791 127.31 6.04168 127.725 6.05784C128.11 6.0387 130.721 6.04338 131.326 9.6404C131.326 9.6404 131.751 11.4476 131.751 14.8495V15.4163ZM113.305 5.91921V2.23671C113.305 1.98096 113.203 1.73573 113.022 1.55489C112.842 1.37405 112.596 1.2724 112.341 1.27229H95.8757C95.6199 1.27229 95.3746 1.3739 95.1937 1.55476C95.0129 1.73563 94.9112 1.98093 94.9112 2.23671V5.89072C94.9114 6.14647 95.013 6.39171 95.1938 6.57255C95.3747 6.75339 95.6199 6.85503 95.8757 6.85514H104.464L94.2985 21.6021C94.2985 21.6021 93.8979 22.2 93.9111 22.8604V27.3462C93.9111 27.3462 93.8448 28.8842 95.5891 27.9917C95.5891 27.9917 98.6873 26.1198 103.882 26.1198C103.882 26.1198 109.013 26.056 112.433 28.1528C112.433 28.1528 113.853 28.7983 113.853 27.3789V23.4744C113.853 23.4744 113.982 22.4411 112.627 21.796C112.627 21.796 108.69 19.6342 103.527 19.9888L113.305 5.91921ZM24.5415 24.381L22.9822 22.0074C22.4859 21.1212 22.5217 20.1287 22.5217 20.1287V9.17945C22.7343 -0.281931 12.2451 0.533237 12.2451 0.533237C2.92064 0.533237 1.54332 7.7898 1.54332 7.7898C1.15466 9.24877 2.28492 9.28406 2.28492 9.28406L6.84127 9.74629C6.84127 9.74629 7.61816 9.92403 7.90094 8.99916C7.90094 8.99916 8.50094 5.83331 11.8564 5.83331C15.5075 5.83331 15.4696 8.96684 15.4696 8.96684V11.5901C8.18117 11.8337 4.80356 13.857 4.80356 13.857C0.303343 16.4084 0.586547 21.4759 0.586547 21.4759C0.586547 29.7321 8.45332 29.3775 8.45332 29.3775C13.4851 29.3775 16.4617 25.6924 16.4617 25.6924C17.3474 27.2522 18.9778 28.7396 18.9778 28.7396C19.7934 29.6241 20.6434 28.8817 20.6434 28.8817L24.3289 25.7282C25.1436 25.1252 24.5415 24.381 24.5415 24.381ZM10.909 24.279C8.54219 24.279 7.66239 21.927 8.0553 19.6155C8.44864 17.3039 10.4914 15.4873 15.4701 15.5405V16.9459C15.6465 23.0854 12.8791 24.279 10.909 24.279ZM90.7355 24.381L89.1766 22.0074C88.6803 21.1212 88.7156 20.1287 88.7156 20.1287V9.17945C88.9282 -0.281931 78.4391 0.533237 78.4391 0.533237C69.1146 0.533237 67.7373 7.7898 67.7373 7.7898C67.3486 9.24877 68.4789 9.28406 68.4789 9.28406L73.0352 9.74629C73.0352 9.74629 73.8121 9.92403 74.0949 8.99916C74.0949 8.99916 74.6949 5.83331 78.0504 5.83331C81.7015 5.83331 81.6636 8.96684 81.6636 8.96684V11.5901C74.3756 11.8337 70.9975 13.857 70.9975 13.857C66.4973 16.4084 66.7805 21.4759 66.7805 21.4759C66.7805 29.7321 74.6473 29.3775 74.6473 29.3775C79.6791 29.3775 82.6557 25.6924 82.6557 25.6924C83.5419 27.2522 85.1713 28.7396 85.1713 28.7396C85.9869 29.6241 86.8374 28.8817 86.8374 28.8817L90.5224 25.7282C91.3376 25.1252 90.7355 24.381 90.7355 24.381ZM77.103 24.279C74.7362 24.279 73.8564 21.927 74.2493 19.6155C74.6426 17.3039 76.6854 15.4873 81.6636 15.5405V16.9459C81.8405 23.0854 79.0735 24.279 77.103 24.279Z" fill="white"/>
<path d="M103.279 45.109C103.279 45.109 102.862 45.834 103.374 45.996C103.374 45.996 103.952 46.2218 104.674 45.5525C104.674 45.5525 109.933 40.9579 110.06 32.5928C110.06 32.5928 110.099 31.548 109.679 31.2622C109.679 31.2622 108.032 29.8045 102.106 30.248C102.106 30.248 96.9416 30.5967 94.1219 33.1001C94.1219 33.1001 93.8685 33.3216 93.8685 33.6065C93.8685 33.6065 93.8077 34.2218 95.3577 33.9552C95.3577 33.9552 100.522 33.2259 103.596 33.6065C103.596 33.6065 105.18 33.7966 105.624 34.3358C105.624 34.3358 106.353 34.9379 105.972 36.9335C105.972 36.9344 104.926 42.004 103.279 45.109Z" fill="white"/>
<path d="M102.235 37.078C102.235 37.078 103.007 38.0773 101.762 38.9392C101.762 38.9392 88.4663 49.5743 66.1417 49.5743C66.1417 49.5743 43.1614 50.7079 23.9728 33.2735C23.9728 33.2735 23.3001 32.6828 23.7177 32.1338C23.7177 32.1338 24.0911 31.6287 25.0576 32.1781C25.0576 32.1781 43.1082 43.4258 66.8148 43.4258C66.8148 43.4258 83.2925 44.0637 100.195 36.8348C100.195 36.8348 101.542 36.137 102.235 37.078Z" fill="white"/>
</svg>
