<svg width="46" height="46" viewBox="0 0 46 46" fill="none" xmlns="http://www.w3.org/2000/svg">
<path d="M7.45028 6.98527C16.1806 -1.74488 30.3355 -1.74497 39.0657 6.98527C47.7958 15.7155 47.7958 29.8704 39.0657 38.6007C30.3355 47.3309 16.1806 47.3308 7.45028 38.6007C-1.28 29.8704 -1.28 15.7155 7.45028 6.98527ZM15.5592 15.1066C15.2098 15.4561 15.0137 15.93 15.0137 16.4242C15.0137 16.9183 15.2099 17.3923 15.5592 17.7417L20.6105 22.793L15.5592 27.8442C15.2099 28.1937 15.0137 28.6676 15.0137 29.1618C15.0137 29.6559 15.2098 30.1299 15.5592 30.4793C15.9086 30.8287 16.3827 31.0247 16.8768 31.0248C17.3709 31.0248 17.8449 30.8286 18.1943 30.4793L23.2456 25.428L28.2968 30.4793C28.6462 30.8287 29.1202 31.0248 29.6143 31.0248C30.1085 31.0248 30.5824 30.8287 30.9319 30.4793C31.2813 30.1299 31.4774 29.656 31.4774 29.1618C31.4774 28.6675 31.2814 28.1937 30.9319 27.8442L25.8806 22.793L30.9319 17.7417C31.2814 17.3922 31.4774 16.9184 31.4774 16.4242C31.4774 15.93 31.2813 15.4561 30.9319 15.1066C30.5824 14.7572 30.1085 14.5611 29.6143 14.5611C29.1202 14.5612 28.6462 14.7572 28.2968 15.1066L28.3058 15.1156L23.2545 20.1669L18.1943 15.1066C17.8449 14.7573 17.3709 14.5611 16.8768 14.5611C16.3827 14.5612 15.9086 14.7572 15.5592 15.1066Z" fill="#D7D7D7" fill-opacity="0.5"/>
</svg>
