<svg width="31" height="31" viewBox="0 0 31 31" fill="none" xmlns="http://www.w3.org/2000/svg">
<g opacity="0.9">
<path d="M18.2232 15.6624C18.2232 17.2677 16.922 18.5689 15.3167 18.5689C13.7114 18.5689 12.4102 17.2677 12.4102 15.6624C12.4102 14.0571 13.7114 12.7559 15.3167 12.7559C16.922 12.7559 18.2232 14.0571 18.2232 15.6624Z" fill="white"/>
<path d="M22.114 10.5196C21.9742 10.141 21.7513 9.79826 21.4617 9.51696C21.1804 9.22733 20.838 9.00443 20.4591 8.86471C20.1519 8.74538 19.6903 8.60334 18.8402 8.56465C17.9205 8.52271 17.6448 8.51367 15.3166 8.51367C12.9882 8.51367 12.7124 8.52248 11.793 8.56442C10.9429 8.60334 10.4811 8.74538 10.1741 8.86471C9.79525 9.00443 9.45255 9.22733 9.17149 9.51696C8.88186 9.79826 8.65896 10.1407 8.51901 10.5196C8.39968 10.8268 8.25764 11.2886 8.21894 12.1387C8.17701 13.0581 8.16797 13.3339 8.16797 15.6623C8.16797 17.9905 8.17701 18.2662 8.21894 19.1859C8.25764 20.036 8.39968 20.4976 8.51901 20.8048C8.65896 21.1837 8.88163 21.5261 9.17126 21.8074C9.45255 22.097 9.79502 22.32 10.1739 22.4597C10.4811 22.5792 10.9429 22.7213 11.793 22.76C12.7124 22.8019 12.9879 22.8107 15.3164 22.8107C17.645 22.8107 17.9208 22.8019 18.8399 22.76C19.6901 22.7213 20.1519 22.5792 20.4591 22.4597C21.2196 22.1663 21.8206 21.5653 22.114 20.8048C22.2333 20.4976 22.3753 20.036 22.4143 19.1859C22.4562 18.2662 22.465 17.9905 22.465 15.6623C22.465 13.3339 22.4562 13.0581 22.4143 12.1387C22.3756 11.2886 22.2335 10.8268 22.114 10.5196ZM15.3166 20.1396C12.8436 20.1396 10.8389 18.1351 10.8389 15.6621C10.8389 13.1891 12.8436 11.1846 15.3166 11.1846C17.7894 11.1846 19.7941 13.1891 19.7941 15.6621C19.7941 18.1351 17.7894 20.1396 15.3166 20.1396ZM19.9711 12.0539C19.3933 12.0539 18.9247 11.5854 18.9247 11.0075C18.9247 10.4297 19.3933 9.96115 19.9711 9.96115C20.549 9.96115 21.0175 10.4297 21.0175 11.0075C21.0173 11.5854 20.549 12.0539 19.9711 12.0539Z" fill="white"/>
<path d="M15.316 0.477539C6.93077 0.477539 0.130859 7.27745 0.130859 15.6627C0.130859 24.048 6.93077 30.8479 15.316 30.8479C23.7013 30.8479 30.5012 24.048 30.5012 15.6627C30.5012 7.27745 23.7013 0.477539 15.316 0.477539ZM23.983 19.2576C23.9409 20.1859 23.7933 20.8196 23.5778 21.3743C23.1248 22.5456 22.1989 23.4715 21.0276 23.9245C20.4731 24.1399 19.8392 24.2873 18.9112 24.3297C17.9814 24.3721 17.6843 24.3823 15.3163 24.3823C12.948 24.3823 12.6512 24.3721 11.7211 24.3297C10.7931 24.2873 10.1591 24.1399 9.60467 23.9245C9.02262 23.7055 8.49572 23.3623 8.06011 22.9186C7.61662 22.4832 7.27347 21.9561 7.0545 21.3743C6.83902 20.8198 6.69142 20.1859 6.64925 19.2579C6.60638 18.3278 6.59642 18.0308 6.59642 15.6627C6.59642 13.2947 6.60638 12.9976 6.64902 12.0678C6.69119 11.1395 6.83855 10.5058 7.05404 9.95112C7.273 9.3693 7.61639 8.84217 8.06011 8.40679C8.49549 7.96307 9.02262 7.61991 9.60444 7.40095C10.1591 7.18546 10.7929 7.0381 11.7211 6.9957C12.6509 6.95329 12.948 6.9431 15.316 6.9431C17.6841 6.9431 17.9811 6.95329 18.911 6.99593C19.8392 7.0381 20.4729 7.18546 21.0276 7.40072C21.6094 7.61968 22.1366 7.96307 22.5722 8.40679C23.0157 8.8424 23.359 9.3693 23.5778 9.95112C23.7935 10.5058 23.9409 11.1395 23.9833 12.0678C24.0257 12.9976 24.0356 13.2947 24.0356 15.6627C24.0356 18.0308 24.0257 18.3278 23.983 19.2576Z" fill="white"/>
</g>
</svg>
