<svg width="32" height="31" viewBox="0 0 32 31" fill="none" xmlns="http://www.w3.org/2000/svg">
<path d="M11.3758 10.8857C9.3106 10.8857 7.57812 14.4388 7.57812 17.9135C7.57812 19.5377 8.19478 20.4486 9.2323 20.4486C10.2405 20.4486 10.8669 19.8124 12.6777 16.9739C12.6777 16.9739 13.5011 15.6662 14.8605 13.5811C13.4289 11.5316 12.4942 10.8857 11.3758 10.8857Z" fill="white"/>
<path d="M20.4499 10.3965C19.3427 10.3965 18.4118 11.2645 17.2832 13.0064C17.5966 13.4707 17.9213 13.9771 18.2602 14.5283L19.5124 16.6166C21.4707 19.7676 21.9634 20.4487 22.9948 20.4487C24.0709 20.4487 24.5902 19.5286 24.5902 17.943C24.5902 13.7831 22.75 10.3965 20.4499 10.3965Z" fill="white"/>
<path d="M15.9469 0.477539C7.56034 0.477539 0.761719 7.27616 0.761719 15.6627C0.761719 24.0492 7.56034 30.8479 15.9469 30.8479C24.3334 30.8479 31.1321 24.0492 31.1321 15.6627C31.1321 7.27616 24.3334 0.477539 15.9469 0.477539ZM22.9453 22.759C20.8856 22.759 19.7489 21.602 17.7087 18.188L16.6614 16.4262C16.4126 16.007 16.1767 15.6172 15.9523 15.2548C15.3118 16.3873 14.3808 18.0314 14.3808 18.0314C12.1474 21.9354 10.8911 22.759 9.14423 22.759C6.71721 22.759 5.26821 20.8699 5.26821 17.8748C5.26821 13.0885 7.93054 8.56649 11.4053 8.56649C13.1096 8.56649 14.5338 9.39272 16.2367 11.561C17.476 9.88546 18.8449 8.56649 20.5962 8.56649C23.9032 8.56649 26.6256 12.7753 26.6256 17.7867C26.6255 20.8441 25.3097 22.759 22.9453 22.759Z" fill="white"/>
</svg>
