<svg width="167" height="50" viewBox="0 0 167 50" fill="none" xmlns="http://www.w3.org/2000/svg">
<path d="M32.283 2.04309C30.2566 1.23385 28.0683 0.828125 25.88 0.828125C24.583 0.828125 23.286 0.989973 21.989 1.23385L16.7611 10.2264C18.9095 9.0513 21.2995 8.48373 23.7716 8.52585C25.2703 8.52585 26.7292 8.72761 28.1481 9.13333L32.283 2.04309ZM0.87793 26.2249C0.87793 39.186 11.8991 49.2715 24.7449 49.2715C38.1982 49.2715 49.0597 38.4166 49.0597 25.2117C49.0597 17.4762 45.3305 10.6698 39.7789 6.13362L35.7261 13.1418C39.2912 16.1792 41.3597 20.6356 41.3597 25.3336C41.3597 34.3261 33.9037 41.6979 24.7449 41.6979C15.5861 41.6979 8.16993 34.2862 8.16993 25.1318V25.0919C8.16993 23.9989 8.24974 22.9037 8.45372 21.8505L0.87793 26.2249ZM75.8864 15.5718C73.8999 15.5318 71.9954 16.2191 70.4967 17.4762L70.091 16.0174H66.4439V34.5279H71.1042V24.4822C71.1042 22.3361 72.5231 20.1877 75.2789 20.1877C77.4273 20.1877 78.6822 21.6865 78.6822 24.2383V34.5678H83.3425V23.8348C83.3425 18.8131 80.4248 15.5718 75.8864 15.5718ZM129.986 15.5718C124.758 15.5718 120.665 19.8241 120.665 25.2538C120.665 30.6812 124.758 34.9336 129.986 34.9336C135.213 34.9336 139.306 30.6812 139.306 25.2538C139.306 19.8241 135.213 15.5718 129.986 15.5718ZM134.604 25.2538C134.604 28.2114 132.659 30.3575 130.025 30.3575C127.392 30.3575 125.405 28.2114 125.405 25.2538C125.405 22.2962 127.349 20.15 129.983 20.15C132.619 20.15 134.604 22.2962 134.604 25.2538ZM102.429 15.5718C97.2015 15.5718 93.1088 19.8241 93.1088 25.2538C93.1088 30.6812 97.2015 34.9336 102.429 34.9336C107.657 34.9336 111.75 30.6812 111.75 25.2538C111.75 19.8241 107.657 15.5718 102.429 15.5718ZM107.008 25.2538C107.008 28.2114 105.063 30.3575 102.429 30.3575C99.7955 30.3575 97.8511 28.2114 97.8511 25.2538C97.8511 22.2962 99.7955 20.15 102.429 20.15C105.063 20.15 107.008 22.2962 107.008 25.2538ZM158.595 15.5718C156.608 15.5318 154.704 16.2191 153.205 17.4762L152.799 16.0174H149.152V34.5279H153.773V24.4822C153.773 22.3361 155.192 20.1877 157.947 20.1877C160.096 20.1877 161.393 21.6865 161.393 24.2383V34.5678H166.051V23.8348C166.011 18.8131 163.093 15.5718 158.595 15.5718Z" fill="white"/>
</svg>
