<svg width="57" height="33" viewBox="0 0 57 33" fill="none" xmlns="http://www.w3.org/2000/svg">
<path d="M51.1068 10.5965V6.63232H47.1426" stroke="#ABABAB" stroke-width="1.5" stroke-miterlimit="10" stroke-linecap="round" stroke-linejoin="round"/>
<path d="M47.1426 26.6258H51.1068V22.6616" stroke="#ABABAB" stroke-width="1.5" stroke-miterlimit="10" stroke-linecap="round" stroke-linejoin="round"/>
<path d="M6.08398 22.6616V26.6258H10.0482" stroke="#ABABAB" stroke-width="1.5" stroke-miterlimit="10" stroke-linecap="round" stroke-linejoin="round"/>
<path d="M10.0482 6.63232H6.08398V10.5965" stroke="#ABABAB" stroke-width="1.5" stroke-miterlimit="10" stroke-linecap="round" stroke-linejoin="round"/>
<path d="M56.171 1.47803H1.01367V31.6926H56.171V1.47803Z" stroke="#ABABAB" stroke-width="1.5" stroke-miterlimit="10" stroke-linecap="round" stroke-linejoin="round"/>
<path opacity="0.8" d="M17.9771 22.6255H15.7051V15.3615H12.8891V13.6495C13.2837 13.6602 13.6624 13.6335 14.0251 13.5695C14.3984 13.4948 14.7291 13.3722 15.0171 13.2015C15.3157 13.0202 15.5664 12.7855 15.7691 12.4975C15.9717 12.2095 16.1051 11.8522 16.1691 11.4255H17.9771V22.6255ZM21.5557 20.1615H24.0677V22.6255H21.5557V20.1615ZM33.0488 13.2975H28.4248L27.9768 15.8415L28.0088 15.8735C28.3182 15.5642 28.6488 15.3455 29.0008 15.2175C29.3528 15.0788 29.7528 15.0095 30.2008 15.0095C30.7555 15.0095 31.2462 15.1108 31.6728 15.3135C32.0995 15.5162 32.4568 15.7882 32.7448 16.1295C33.0435 16.4708 33.2675 16.8762 33.4168 17.3455C33.5768 17.8042 33.6568 18.2948 33.6568 18.8175C33.6568 19.3935 33.5448 19.9322 33.3208 20.4335C33.0968 20.9242 32.7928 21.3508 32.4088 21.7135C32.0355 22.0762 31.5982 22.3588 31.0968 22.5615C30.5955 22.7535 30.0622 22.8442 29.4968 22.8335C28.9528 22.8335 28.4302 22.7642 27.9288 22.6255C27.4382 22.4762 27.0008 22.2522 26.6168 21.9535C26.2328 21.6548 25.9235 21.2868 25.6888 20.8495C25.4648 20.4015 25.3475 19.8842 25.3368 19.2975H27.6088C27.6622 19.8095 27.8542 20.2202 28.1848 20.5295C28.5155 20.8282 28.9368 20.9775 29.4488 20.9775C29.7475 20.9775 30.0142 20.9188 30.2488 20.8015C30.4942 20.6735 30.6968 20.5135 30.8568 20.3215C31.0275 20.1188 31.1555 19.8895 31.2408 19.6335C31.3368 19.3668 31.3848 19.0948 31.3848 18.8175C31.3848 18.5295 31.3422 18.2575 31.2568 18.0015C31.1715 17.7455 31.0435 17.5215 30.8728 17.3295C30.7022 17.1375 30.4995 16.9882 30.2648 16.8815C30.0302 16.7748 29.7582 16.7215 29.4488 16.7215C29.0435 16.7215 28.7128 16.7962 28.4568 16.9455C28.2008 17.0842 27.9608 17.3082 27.7368 17.6175H25.6888L26.7928 11.4255H33.0488V13.2975ZM35.0435 11.2015H37.5555V15.9375L42.0195 11.2015H45.1555L40.6915 15.7135L45.5875 22.6255H42.4355L38.9955 17.4895L37.5555 18.9455V22.6255H35.0435V11.2015Z" fill="#ABABAB"/>
</svg>
