<svg width="38" height="33" viewBox="0 0 38 33" fill="none" xmlns="http://www.w3.org/2000/svg">
<path d="M32.2982 10.6673V6.70312H28.334" stroke="#ABABAB" stroke-width="1.5" stroke-miterlimit="10" stroke-linecap="round" stroke-linejoin="round"/>
<path d="M28.334 26.6966H32.2982V22.7324" stroke="#ABABAB" stroke-width="1.5" stroke-miterlimit="10" stroke-linecap="round" stroke-linejoin="round"/>
<path d="M5.27539 22.7324V26.6966H9.2396" stroke="#ABABAB" stroke-width="1.5" stroke-miterlimit="10" stroke-linecap="round" stroke-linejoin="round"/>
<path d="M9.2396 6.70312H5.27539V10.6673" stroke="#ABABAB" stroke-width="1.5" stroke-miterlimit="10" stroke-linecap="round" stroke-linejoin="round"/>
<path d="M36.8155 1.54883H0.751953V31.7634H36.8155V1.54883Z" stroke="#ABABAB" stroke-width="1.5" stroke-miterlimit="10" stroke-linecap="round" stroke-linejoin="round"/>
<path opacity="0.8" d="M8.66036 15.8003C8.63903 15.1603 8.71369 14.5683 8.88436 14.0243C9.05503 13.4696 9.31103 12.9896 9.65236 12.5843C9.99369 12.1683 10.4204 11.8483 10.9324 11.6243C11.455 11.3896 12.0524 11.2723 12.7244 11.2723C13.2364 11.2723 13.7217 11.3523 14.1804 11.5123C14.6497 11.6723 15.0604 11.9016 15.4124 12.2003C15.7644 12.499 16.0417 12.867 16.2444 13.3043C16.4577 13.7416 16.5644 14.2323 16.5644 14.7763C16.5644 15.3416 16.4737 15.827 16.2924 16.2323C16.111 16.6376 15.871 17.0003 15.5724 17.3203C15.2737 17.6296 14.9324 17.9123 14.5484 18.1683C14.175 18.4243 13.7964 18.6803 13.4124 18.9363C13.0284 19.1816 12.655 19.4483 12.2924 19.7363C11.9297 20.0243 11.6097 20.3603 11.3324 20.7443H16.6284V22.6963H8.40436C8.40436 22.0456 8.49503 21.4803 8.67636 21.0003C8.86836 20.5203 9.12436 20.0936 9.44436 19.7203C9.76436 19.3363 10.1377 18.9843 10.5644 18.6643C11.0017 18.3443 11.4604 18.019 11.9404 17.6883C12.1857 17.5176 12.447 17.347 12.7244 17.1763C13.0017 16.995 13.2524 16.7976 13.4764 16.5843C13.711 16.371 13.903 16.131 14.0524 15.8643C14.2124 15.5976 14.2924 15.2936 14.2924 14.9523C14.2924 14.4083 14.1324 13.987 13.8124 13.6883C13.503 13.379 13.103 13.2243 12.6124 13.2243C12.2817 13.2243 11.999 13.3043 11.7644 13.4643C11.5404 13.6136 11.359 13.8163 11.2204 14.0723C11.0817 14.3176 10.9804 14.595 10.9164 14.9043C10.863 15.203 10.8364 15.5016 10.8364 15.8003H8.66036ZM18.063 11.2723H20.575V16.0083L25.039 11.2723H28.175L23.711 15.7843L28.607 22.6963H25.455L22.015 17.5603L20.575 19.0163V22.6963H18.063V11.2723Z" fill="#ABABAB"/>
</svg>
