<svg width="29" height="43" viewBox="0 0 29 43" fill="none" xmlns="http://www.w3.org/2000/svg">
<path d="M17.21 33.3917C16.5948 34.2126 15.6141 34.7438 14.5093 34.7438C13.4045 34.7438 12.4238 34.2126 11.8087 33.3917L3.70777 23.2562C2.01967 21.0034 1.01866 18.2075 1.01866 15.1823C1.01866 7.74365 7.07066 1.69165 14.5093 1.69165C21.948 1.69165 28 7.74365 28 15.1823C28 18.2075 26.999 21.0034 25.3109 23.2562L17.21 33.3917Z" stroke="#ABABAB" stroke-width="1.5" stroke-miterlimit="10" stroke-linecap="round" stroke-linejoin="round"/>
<path d="M14.5105 21.9272C10.7852 21.9272 7.76519 18.9072 7.76519 15.1819C7.76519 11.4565 10.7852 8.43652 14.5105 8.43652C18.2359 8.43652 21.2559 11.4565 21.2559 15.1819C21.2559 18.9072 18.2359 21.9272 14.5105 21.9272Z" stroke="#ABABAB" stroke-width="1.5" stroke-miterlimit="10" stroke-linecap="round" stroke-linejoin="round"/>
<path d="M2.26646 31.906C1.46562 32.7684 1.01866 33.7297 1.01866 34.7431C1.01866 38.4685 7.0586 41.4884 14.5093 41.4884C21.9601 41.4884 28 38.4685 28 34.7431C28 33.7297 27.553 32.7684 26.7522 31.906" stroke="#ABABAB" stroke-width="1.5" stroke-miterlimit="10" stroke-linecap="round" stroke-linejoin="round"/>
</svg>
