<svg width="31" height="31" viewBox="0 0 31 31" fill="none" xmlns="http://www.w3.org/2000/svg">
<path d="M18.1816 26.6183L18.1816 5.18944L21.7334 1.6377L29.5008 1.6377L29.5008 30.17L21.7334 30.17L18.1816 26.6183Z" stroke="#ABABAB" stroke-width="1.5" stroke-miterlimit="10"/>
<path d="M21.7344 30.17L21.7344 1.6377" stroke="#ABABAB" stroke-width="1.5" stroke-miterlimit="10"/>
<path d="M4.5164 24.4788C2.22867 22.191 0.968749 19.1458 0.96875 15.9042C0.96875 12.6626 2.22867 9.61738 4.51641 7.32959" stroke="#ABABAB" stroke-width="1.5" stroke-miterlimit="10"/>
<path d="M7.02688 21.9675C5.35531 20.2958 4.51953 18.1 4.51953 15.9043C4.51953 13.7085 5.35531 11.5128 7.02688 9.84106" stroke="#ABABAB" stroke-width="1.5" stroke-miterlimit="10"/>
<path d="M9.53953 19.4555C7.57797 17.494 7.57797 14.3136 9.53953 12.3521" stroke="#ABABAB" stroke-width="1.5" stroke-miterlimit="10"/>
<path d="M18.1811 7.55713C16.1557 7.55713 14.299 8.27872 12.8535 9.47862L12.8535 22.3288C14.299 23.5287 16.1557 24.2503 18.1811 24.2503" stroke="#ABABAB" stroke-width="1.5" stroke-miterlimit="10"/>
</svg>
